PathFileType	4	(X/Y/Z)	C:/Users/beibeiliu/ov580/test_trc/User3\sequence.23_training_dense_right.trc
DataRate	CameraRate	NumFrames	NumMarkers	Units	OrigDataRate	OrigDataStartFrame	OrigNumFrames
120	120	18	19	mm	120	37	293
Frame#	Time	ThumbCMC			ThumbMCP			ThumbIP			ThumbTip			IndexMCP			IndexPIP			IndexTip			MiddleMCP			MiddlePIP			MiddleTip			RingMCP			RingPIP			RingTip			PinkyMCP			PinkyPIP			PinkyTip			BackHand1			BackHand2			BackHand3	
		X0	Y0	Z0	X1	Y1	Z1	X2	Y2	Z2	X3	Y3	Z3	X4	Y4	Z4	X5	Y5	Z5	X6	Y6	Z6	X7	Y7	Z7	X8	Y8	Z8	X9	Y9	Z9	X10	Y10	Z10	X11	Y11	Z11	X12	Y12	Z12	X13	Y13	Z13	X14	Y14	Z14	X15	Y15	Z15	X16	Y16	Z16	X17	Y17	Z17	X18	Y18	Z18	
36	0.3	172.717	15.8677	24.9531	160.328	30.3743	-7.41157	159.029	21.6435	-35.6174	170.833	-2.01912	-45.7198	191.31	35.0364	-53.6589	189.414	37.4415	-76.0412	184.798	45.1684	-99.4737	213.932	18.0036	-62.0733	213.436	20.158	-87.2637	213.478	19.8631	-117.777	224.405	-3.43004	-53.227	225.123	2.21117	-79.3252	230.227	0.439398	-106.832	230.9	-20.4802	-42.184	234.524	-22.8373	-58.2853	241.685	-23.4671	-82.8696	226.748	-0.0897941	-0.437742	228.17	-7.05463	30.1257	207.208	18.3706	13.6116	
37	0.308333	167.716	13.6323	22.6255	153.046	24.9946	-1.96186	156.583	18.0875	-36.8233	167.268	-2.59173	-47.9408	187.875	32.3921	-51.4251	180.974	41.0541	-74.0486	180.816	43.7141	-97.8208	206.702	23.0938	-59.3646	208.544	24.01	-83.9822	207.102	29.6751	-117.657	221.175	3.05715	-51.4181	224.434	7.10188	-78.1909	227.735	9.40909	-104.078	231.863	-18.1775	-37.2501	240.313	-16.1467	-61.9167	244.397	-13.4166	-77.266	222.154	1.83181	0.412235	224.484	-0.911557	26.327	199.741	18.8419	17.7273	
38	0.316667	162.615	5.57055	26.6575	145.319	20.0584	-0.872751	150.222	14.5814	-36.3266	164.771	-4.89624	-48.1491	180.175	30.0598	-48.3337	177.066	37.9097	-72.2587	170.056	46.2986	-96.8556	204.051	23.917	-57.1165	206.047	26.5128	-83.0831	205.24	31.3731	-115.288	219.83	7.93164	-48.9724	222.545	13.4984	-76.0337	224.625	17.4173	-99.0992	233.555	-12.3847	-37.3611	241.023	-8.80179	-58.9748	246.364	-4.0518	-78.9456	220.669	5.17206	3.3155	224.5	0.373656	27.7544	193.594	19.0768	13.8506	
39	0.325	158.214	0.650147	28.2117	141.151	13.0497	0.496697	146.191	9.66125	-33.7436	159.769	-6.81158	-47.0308	173.245	28.928	-50.6366	166.827	36.9037	-72.9758	163.853	41.9156	-97.9064	200.616	23.9207	-54.3086	197.108	30.5006	-79.9783	195.849	37.4719	-113.256	214.439	13.4356	-50.6316	219.949	18.0994	-69.7984	220.47	24.5031	-96.7463	230.869	-6.47783	-33.7094	240.053	-3.33788	-52.0876	245.138	3.22307	-73.3412	215.164	6.44285	3.96898	217.197	3.99946	29.1276	188.55	18.3504	16.3122	
40	0.333333	152.426	-4.0198	29.1815	140.521	6.9125	-1.6433	146.85	2.97594	-30.7709	159.546	-10.7597	-45.0904	165.925	23.3107	-43.8013	159.519	32.3978	-68.3916	155.583	38.6406	-94.3196	191.592	26.1833	-54.4143	193.127	31.3623	-81.105	192.842	36.807	-111.976	213.66	14.9442	-49.6507	214.18	22.2023	-69.9724	216.329	28.6038	-96.719	226.756	-0.434451	-33.0057	238.241	4.90953	-52.4467	244.933	10.7949	-74.259	214.557	7.83283	4.25223	216.79	2.64795	33.2929	182.005	16.3283	17.6193	
41	0.341667	152.606	-8.02691	26.9913	138.116	-0.878351	0.858394	142.23	-2.84946	-30.2166	161.782	-13.3995	-44.6856	163.123	21.1583	-43.7952	159.822	27.761	-69.0209	154.754	34.1965	-97.0264	192.813	23.6308	-51.5091	188.958	28.965	-75.9922	188.942	37.1971	-108.959	212.567	13.3788	-44.2776	212.136	22.7651	-67.9301	216.751	29.7458	-92.3032	230.614	0.852079	-30.8961	238.53	8.18054	-50.8461	245.347	15.1775	-70.5741	209.657	8.96621	5.03807	214.003	5.65512	34.0368	181.803	10.785	18.8818	
42	0.35	153.923	-14.2094	26.9813	134.773	-7.70637	1.69142	143.76	-7.83088	-30.231	163.509	-17.9661	-47.0052	160.137	17.5875	-44.4595	156.703	23.9344	-70.1142	151.302	28.814	-93.214	188.099	23.8687	-53.4429	190.067	28.8191	-77.4337	189.786	36.161	-109.39	210.466	15.9283	-46.3413	209.173	23.149	-64.9078	214.585	31.1133	-94.7286	229.558	1.5011	-27.8027	234.006	12.4474	-51.4048	243.671	18.5446	-67.5697	209.308	9.68179	8.41731	211.473	3.78166	31.9485	175.911	8.55368	20.2579	
43	0.358333	154.53	-18.315	25.7002	135.767	-14.116	1.72645	141.484	-13.4233	-32.1469	164.031	-21.7468	-48.3182	162.218	14.0571	-48.351	157.302	18.5537	-69.4133	152.427	23.5252	-94.0596	188.74	21.6713	-53.3051	188.113	26.392	-74.4581	185.569	34.6345	-106.459	204.692	14.1125	-44.2797	207.381	23.3282	-66.7824	207.714	29.9502	-89.9581	228.931	3.5005	-27.4766	234.503	12.8419	-45.5913	240.407	22.8297	-67.3922	206.511	9.09726	8.84286	210.278	4.41934	32.6935	174.153	6.10562	16.9373	
44	0.366667	151.274	-21.2148	27.3604	136.583	-16.9851	2.16611	140.912	-17.586	-28.5591	160.757	-24.4301	-43.4368	161.869	9.83927	-43.6935	151.779	16.9504	-72.5428	148.925	20.7526	-93.3442	184.669	17.1146	-48.7194	180.585	24.6913	-75.8989	179.661	32.1596	-103.972	203.6	14.5084	-41.6473	203.784	23.6836	-68.0603	209.06	29.9676	-90.7637	226.914	6.20953	-28.2078	228.852	13.8807	-47.2406	236.314	22.9788	-67.2121	203.934	8.46738	9.4918	207.406	5.68393	33.9431	176.056	3.54534	21.2301	
45	0.375	154.23	-21.5098	25.0467	135.212	-17.7876	3.99031	139.719	-19.1137	-26.7992	159.899	-25.9864	-43.6645	157.341	11.337	-46.7847	150.634	14.9965	-68.3636	151.355	21.1584	-94.6483	181.384	17.8772	-50.8683	182.04	24.9809	-76.3296	178.212	32.8473	-105.332	202.215	15.3405	-45.1124	201.299	24.2511	-67.8396	205.537	29.8754	-91.1498	220.601	4.18558	-28.5583	228.008	14.5518	-48.8699	229.167	23.0513	-68.0513	203.331	11.1002	6.28998	207.053	3.0768	37.5431	172.238	3.0351	22.3673	
46	0.383333	152.431	-20.6565	26.7077	133.046	-15.2746	1.82402	136.208	-16.263	-29.641	158.773	-24.431	-47.0229	159.36	11.039	-42.0813	149.174	15.8005	-68.142	147.198	22.2305	-95.3173	179.019	19.1147	-48.9385	176.977	24.9934	-72.8507	177.767	33.5998	-104.99	199.131	13.414	-40.5662	199.892	23.7496	-67.0127	202.106	31.2875	-90.9404	222.259	7.10016	-28.5978	223.156	13.204	-45.5467	232.149	25.0121	-67.1774	200.008	8.95431	8.7247	208.251	5.5987	38.9238	168.368	4.94123	20.1941	
47	0.391667	147.92	-19.6191	27.2635	132.399	-14.036	2.92205	136	-14.7966	-31.8552	154.902	-22.8135	-43.6102	154.33	11.3443	-43.1212	151.378	18.0743	-68.5842	148.882	24.2928	-96.8119	179.73	19.799	-48.505	176.546	27.1473	-75.179	176.884	34.3573	-105.064	197.72	14.9559	-40.5968	198.211	24.7044	-66.6604	200.229	31.9906	-91.7319	222.402	8.99693	-28.949	225.948	17.0378	-50.3031	225.775	24.5415	-68.0788	203.929	10.397	4.95248	206.599	7.5206	34.287	171.468	6.1515	20.5276	
48	0.4	151.576	-19.1049	29.365	129.341	-12.0989	1.87505	132.603	-12.7957	-29.5406	157.21	-19.9906	-42.8214	153.518	12.4534	-42.2227	152.506	20.9584	-69.6398	144.868	25.4111	-92.8333	182.066	22.0423	-50.6077	177.545	29.5442	-78.2478	174.245	36.9744	-107.842	199.205	16.0122	-41.0481	201.395	26.468	-68.0026	200.421	32.3667	-90.5952	220.33	7.96131	-29.2014	220.736	16.0908	-48.6314	224.775	25.8718	-67.475	203.55	12.2873	8.72162	203.577	7.02174	38.0966	170.116	6.41432	23.8709	
49	0.408333	148.834	-16.6716	28.9648	128.424	-9.86097	3.31755	134.994	-9.94504	-30.405	153.305	-18.686	-43.9856	156.44	17.3094	-47.5792	148.498	21.3593	-66.7185	149.129	27.4005	-91.4554	182.977	23.1296	-51.1703	177.459	29.5592	-76.0491	175.509	37.5502	-106.879	197.802	17.7749	-42.8	200.54	25.2602	-64.2428	203.264	33.9888	-95.0595	221.405	6.3472	-28.4116	227.447	16.0492	-48.2743	226.497	24.5475	-67.7987	204.123	11.1106	9.74471	206.612	8.6908	35.2446	170.588	8.60321	22.5287	
50	0.416667	152.168	-12.4357	27.4353	133.127	-3.2035	0.431695	134.507	-6.40869	-27.7585	156.663	-15.5329	-43.9366	159.895	17.6045	-44.3739	153.561	24.9629	-72.3974	150.792	30.5566	-96.3414	181.475	22.7797	-47.4783	184.022	31.3861	-78.6097	179.749	36.9914	-105.442	204.275	17.7106	-44.5011	201.168	25.1022	-65.1507	205.182	33.2904	-94.1857	220.52	4.7877	-28.3661	229.441	12.8557	-49.2722	230.54	22.3889	-66.8348	206.076	12.4553	7.15426	206.256	6.77222	34.4056	173.746	11.8197	23.0066	
51	0.425	149.5	-6.90429	26.3158	131.86	0.546205	1.10384	136.583	-2.03378	-27.7494	158.064	-12.7139	-46.3213	160.28	22.3253	-45.9427	155.097	28.06	-70.6033	153.551	32.4759	-93.9001	185.194	24.9494	-53.3992	183.23	29.0409	-76.1295	187.306	35.2105	-107.048	207.793	15.9301	-44.9231	207.08	22.1205	-66.2853	211.076	28.3311	-95.8649	223.398	2.37591	-31.1174	227.192	10.433	-50.6948	238.27	15.5632	-70.1137	205.848	12.7208	3.81461	209.1	8.47762	33.0375	177.911	12.3886	22.7169	
52	0.433333	150.103	-2.33604	29.5142	138.153	8.01478	-0.391556	141.091	2.47483	-27.6749	159.094	-10.2526	-45.2105	167.072	22.9745	-44.6536	162.323	27.4533	-69.5949	156.328	33.8622	-95.8768	190.546	21.317	-50.6524	188.585	26.0266	-77.2152	186.947	32.7052	-110.959	211.701	10.5486	-45.5252	208.518	18.4261	-71.9741	214.635	21.2478	-98.0536	224.987	-2.22042	-33.7246	233.181	0.044127	-50.6867	239.404	8.86731	-75.1591	210.171	10.5659	2.73443	216.039	4.77488	33.062	180.034	16.8097	21.261	
53	0.441667	153.877	4.91142	27.1428	139.534	13.2402	-1.60335	146.202	6.03692	-30.2969	158.208	-8.73729	-46.7747	171.653	23.5308	-51.068	164.433	29.9262	-74.8353	166.029	32.597	-101.74	196.85	18.9482	-56.2403	192.015	22.117	-80.3222	195.84	24.7127	-112.618	211.139	6.85366	-50.2508	212.756	10.0057	-72.6189	217.26	12.6646	-100.499	225.1	-9.42131	-33.9185	231.641	-6.44502	-54.4144	239.12	-2.62628	-75.4344	216.044	6.55841	2.40071	214.669	2.57795	34.1383	186.544	16.1955	18.5893	
